<svg viewBox="0 0 1000 511" xmlns="http://www.w3.org/2000/svg">
  <path d="M 321 3 L 326 3 L 325 14 L 336 16 L 349 34 L 357 86 L 370 111 L 380 111 L 387 104 L 397 73 L 408 50 L 418 42 L 426 44 L 418 98 L 431 120 L 444 124 L 472 88 L 488 78 L 477 127 L 482 155 L 498 150 L 527 112 L 542 106 L 508 186 L 514 200 L 540 200 L 604 165 L 632 176 L 632 189 L 655 222 L 653 269 L 635 282 L 575 302 L 555 302 L 549 308 L 553 316 L 630 338 L 660 334 L 687 325 L 717 323 L 723 331 L 709 351 L 730 359 L 879 312 L 959 310 L 973 320 L 970 328 L 944 341 L 929 343 L 918 356 L 937 387 L 968 413 L 983 418 L 996 431 L 995 437 L 942 446 L 931 455 L 905 460 L 893 477 L 882 478 L 787 452 L 728 446 L 681 434 L 632 433 L 619 446 L 591 447 L 586 452 L 584 470 L 591 491 L 581 498 L 486 495 L 455 485 L 423 486 L 410 493 L 318 491 L 259 482 L 207 454 L 117 454 L 122 480 L 109 486 L 80 486 L 75 506 L 68 488 L 53 470 L 6 465 L 0 459 L 0 431 L 6 405 L 24 385 L 75 348 L 81 318 L 93 316 L 106 328 L 130 308 L 142 307 L 179 282 L 236 263 L 274 261 L 292 250 L 290 138 L 299 88 L 300 27 L 305 14 L 320 4 Z" fill="#2D7A6B"/>
</svg>
