<!-- PLACEHOLDER — replace this file's contents with the real fish silhouette asset
     from the Pleco brand kit (/pleco_brand/) before launch. No fill attribute on
     purpose: the page CSS colors it (teal in the hero, cream in the footer). -->
<svg viewBox="0 0 1000 511" xmlns="http://www.w3.org/2000/svg" aria-hidden="true">
  <path d="M321 3L326 3L325 14L336 16L349 34L357 86L370 111L380 111L387 104L397 73L408 50L418 42L426 44L418 98L431 120L444 124L472 88L488 78L477 127L482 155L498 150L527 112L542 106L508 186L514 200L540 200L604 165L632 176L632 189L655 222L653 269L635 282L575 302L555 302L549 308L553 316L630 338L660 334L687 325L717 323L723 331L709 351L730 359L879 312L959 310L973 320L970 328L944 341L929 343L918 356L937 387L968 413L983 418L996 431L995 437L942 446L931 455L905 460L893 477L882 478L787 452L728 446L681 434L632 433L619 446L591 447L586 452L584 470L591 491L581 498L486 495L455 485L423 486L410 493L318 491L259 482L207 454L117 454L122 480L109 486L80 486L75 506L68 488L53 470L6 465L0 459L0 431L6 405L24 385L75 348L81 318L93 316L106 328L130 308L142 307L179 282L236 263L274 261L292 250L290 138L299 88L300 27L305 14L320 4Z"/>
</svg>
